<svg xmlns="http://www.w3.org/2000/svg" xmlns:xlink="http://www.w3.org/1999/xlink" width="500" zoomAndPan="magnify" viewBox="0 0 375 374.999991" height="500" preserveAspectRatio="xMidYMid meet" version="1.0"><defs><clipPath id="ffee7b5eb9"><path d="M 21 206 L 373.238281 206 L 373.238281 222 L 21 222 Z M 21 206 " clip-rule="nonzero"/></clipPath><clipPath id="56814de9c0"><path d="M 1.988281 244 L 85 244 L 85 375 L 1.988281 375 Z M 1.988281 244 " clip-rule="nonzero"/></clipPath></defs><g clip-path="url(#ffee7b5eb9)"><path fill="#ffffff" d="M 373.011719 221.574219 L 21.136719 221.574219 L 21.136719 206.089844 L 373.011719 206.089844 L 373.011719 221.574219 " fill-opacity="1" fill-rule="nonzero"/></g><path fill="#ffffff" d="M 213.746094 15.957031 C 213.746094 24.753906 206.613281 31.886719 197.816406 31.886719 C 189.023438 31.886719 181.894531 24.753906 181.894531 15.957031 C 181.894531 7.160156 189.023438 0.03125 197.816406 0.03125 C 206.613281 0.03125 213.746094 7.160156 213.746094 15.957031 " fill-opacity="1" fill-rule="nonzero"/><path fill="#ffffff" d="M 94.261719 172.96875 L 65.867188 172.96875 C 65.867188 51.015625 163.300781 39.402344 197.824219 39.402344 C 105.875 39.402344 94.261719 172.96875 94.261719 172.96875 Z M 197.070312 31.441406 C 25.433594 31.441406 51.246094 191.464844 51.246094 191.464844 L 344.621094 191.464844 C 344.621094 191.464844 368.710938 31.441406 197.070312 31.441406 " fill-opacity="1" fill-rule="nonzero"/><g clip-path="url(#56814de9c0)"><path fill="#ffffff" d="M 12.3125 254.914062 L 12.3125 361.980469 L 74.261719 347.601562 L 74.261719 254.914062 Z M 1.992188 374.976562 L 1.992188 244.589844 L 84.582031 244.589844 L 84.582031 355.800781 L 1.992188 374.976562 " fill-opacity="1" fill-rule="nonzero"/></g><path fill="#ffffff" d="M 93.617188 249.753906 C 93.617188 249.753906 171.695312 213.832031 252.992188 249.753906 L 248.335938 257.109375 C 243.601562 264.582031 235.375 269.113281 226.53125 269.113281 L 177.503906 269.113281 C 177.503906 269.113281 152.738281 278.144531 181.894531 278.144531 C 211.054688 278.144531 261.378906 278.144531 261.378906 278.144531 C 261.378906 278.144531 320.75 235.722656 350.429688 255.964844 L 256.863281 323.3125 L 93.617188 336.863281 L 93.617188 249.753906 " fill-opacity="1" fill-rule="nonzero"/><path fill="#ffffff" d="M 183.832031 15.957031 C 183.832031 24.753906 190.964844 31.886719 199.761719 31.886719 C 208.554688 31.886719 215.683594 24.753906 215.683594 15.957031 C 215.683594 7.160156 208.554688 0.03125 199.761719 0.03125 C 190.964844 0.03125 183.832031 7.160156 183.832031 15.957031 " fill-opacity="1" fill-rule="nonzero"/><path fill="#ffffff" d="M 303.316406 172.96875 L 331.710938 172.96875 C 331.710938 51.015625 234.277344 39.402344 199.753906 39.402344 C 291.703125 39.402344 303.316406 172.96875 303.316406 172.96875 Z M 200.507812 31.441406 C 372.144531 31.441406 346.332031 191.464844 346.332031 191.464844 L 52.957031 191.464844 C 52.957031 191.464844 28.867188 31.441406 200.507812 31.441406 " fill-opacity="1" fill-rule="nonzero"/></svg>